v 0.0 1.0 0.5
v 0.0 0.5 1.0
v 0.0 0.0 1.2
v 0.0 -0.4 1.3
v 0.0 -0.7 1.1
v 0.0 -1.0 0.8
v 0.0 -1.2 0.0
v 0.0 0.8 -1.0
v 0.0 0.0 -1.2
v 0.0 -1.0 -1.0
v 0.4 0.9 0.6
v 0.8 1.6 0.2
v 0.9 0.8 -0.2
v 1.0 0.5 0.5
v 1.2 0.0 0.4
v 1.0 -0.5 0.6
v 0.5 0.4 0.9
v 0.2 0.5 0.9
v 0.3 -0.3 1.1
v 0.4 -0.8 0.8
v 0.6 -1.1 0.0
v 0.5 0.0 -1.0
v -0.4 0.9 0.6
v -0.8 1.6 0.2
v -0.9 0.8 -0.2
v -1.0 0.5 0.5
v -1.2 0.0 0.4
v -1.0 -0.5 0.6
v -0.5 0.4 0.9
v -0.2 0.5 0.9
v -0.3 -0.3 1.1
v -0.4 -0.8 0.8
v -0.6 -1.1 0.0
v -0.5 0.0 -1.0
f 1 11 2
f 2 11 18
f 11 17 18
f 11 14 17
f 11 12 14
f 11 8 12
f 12 13 14
f 12 8 13
f 8 22 13
f 8 9 22
f 9 10 22
f 10 21 22
f 22 15 13
f 22 21 15
f 13 14 15
f 14 16 15
f 14 17 16
f 17 19 16
f 17 18 19
f 2 18 3
f 18 19 3
f 3 19 4
f 4 19 20
f 4 20 5
f 5 20 6
f 6 20 20
f 6 20 7
f 7 20 21
f 7 21 10
f 16 20 21
f 16 19 20
f 2 23 1
f 30 23 2
f 30 29 23
f 29 26 23
f 26 24 23
f 24 8 23
f 26 25 24
f 25 8 24
f 25 34 8
f 34 9 8
f 34 10 9
f 34 33 10
f 25 27 34
f 27 33 34
f 27 26 25
f 27 28 26
f 28 29 26
f 28 31 29
f 31 30 29
f 3 30 2
f 3 31 30
f 4 31 3
f 32 31 4
f 5 32 4
f 6 32 5
f 32 32 6
f 7 32 6
f 33 32 7
f 10 33 7
f 33 32 28
f 32 31 28
